<svg width="202" height="52" viewBox="0 0 202 52" fill="none" xmlns="http://www.w3.org/2000/svg">
<g clip-path="url(#clip0_905_8923)">
<path d="M35.0448 51.2921L31.6489 41.2731H14.0351L10.6908 51.2921H0.00585938L18.1513 2.66719H27.4642L45.7297 51.2921H35.0448ZM22.8163 14.9602L16.745 33.1518H28.9391L22.8163 14.9602ZM69.2776 41.3073C69.2776 40.1218 68.6888 39.1929 67.5111 38.5204C66.3448 37.8365 64.464 37.2267 61.8685 36.691C53.2474 34.89 48.9369 31.2426 48.9369 25.7487C48.9369 22.5457 50.2746 19.8672 52.9501 17.7129C55.6142 15.57 59.1015 14.4986 63.4121 14.4986C68.0085 14.4986 71.6844 15.5757 74.44 17.73C77.207 19.8957 78.5905 22.6996 78.5905 26.1419H68.9003C68.9003 24.7627 68.4544 23.6229 67.5626 22.7224C66.6707 21.822 65.2758 21.3717 63.3778 21.3717C61.7427 21.3717 60.4793 21.7365 59.5875 22.466C58.6956 23.2068 58.2497 24.1472 58.2497 25.287C58.2497 26.3471 58.7585 27.2076 59.7761 27.8687C60.7937 28.5184 62.5088 29.0826 64.9213 29.5614C67.3339 30.0401 69.3634 30.5815 71.0098 31.1856C76.1322 33.0549 78.6934 36.2977 78.6934 40.914C78.6934 44.2081 77.2756 46.8696 74.44 48.8985C71.593 50.9388 67.9284 51.9589 63.4464 51.9589C60.405 51.9589 57.7066 51.4175 55.3512 50.3347C52.9959 49.2632 51.1493 47.7872 49.8116 45.9065C48.4738 44.0257 47.8049 41.9912 47.8049 39.8027H56.9806C57.072 41.5238 57.7066 42.8403 58.8843 43.7522C60.0734 44.6641 61.6627 45.12 63.6522 45.12C65.5045 45.12 66.9051 44.7666 67.8541 44.0599C68.8031 43.3647 69.2776 42.4471 69.2776 41.3073ZM94.3691 0V19.0978C96.9303 16.0316 100.155 14.4986 104.042 14.4986C111.909 14.4986 115.893 19.0465 115.996 28.1423V51.2921H106.323V28.4158C106.323 26.3414 105.877 24.814 104.985 23.8337C104.094 22.8421 102.607 22.3463 100.526 22.3463C97.6907 22.3463 95.6383 23.4348 94.3691 25.6119V51.2921H84.679V0H94.3691ZM125.206 6.27474H134.896V15.1654H141.088V22.2437H134.896V40.2643C134.896 41.6093 135.154 42.5668 135.668 43.1367C136.183 43.718 137.166 44.0087 138.618 44.0087C139.681 44.0087 140.63 43.9346 141.465 43.7864V51.087C139.567 51.6683 137.612 51.9589 135.599 51.9589C128.808 51.9589 125.343 48.5395 125.206 41.7005V22.2437H119.924V15.1654H125.206V6.27474ZM166.985 14.926L166.848 24.2099C165.533 24.0275 164.373 23.9363 163.366 23.9363C159.708 23.9363 157.307 25.173 156.163 27.6465V51.2921H146.49V15.1654H155.632L155.906 19.4739C157.838 16.157 160.525 14.4986 163.967 14.4986C165.042 14.4986 166.048 14.6411 166.985 14.926ZM201.287 51.2921H191.511C191.065 50.4259 190.739 49.3487 190.533 48.0607C188.189 50.6595 185.142 51.9589 181.392 51.9589C177.836 51.9589 174.892 50.9331 172.559 48.8814C170.227 46.8411 169.061 44.2594 169.061 41.1363C169.061 37.3065 170.484 34.3714 173.331 32.3311C176.178 30.2795 180.294 29.2422 185.68 29.2194H190.139V27.1506C190.139 25.4751 189.704 24.1415 188.835 23.1499C187.978 22.1468 186.623 21.6453 184.771 21.6453C183.147 21.6453 181.866 22.0328 180.929 22.8079C180.003 23.583 179.54 24.6487 179.54 26.0051H169.867C169.867 23.9192 170.513 21.9872 171.805 20.2091C173.108 18.4196 174.943 17.0233 177.31 16.0202C179.677 15.0058 182.329 14.4986 185.268 14.4986C189.739 14.4986 193.289 15.6156 195.919 17.8497C198.537 20.0837 199.846 23.2296 199.846 27.2874V42.9486C199.869 46.3681 200.349 48.9612 201.287 50.7279V51.2921ZM183.501 44.5729C184.931 44.5729 186.246 44.2594 187.446 43.6325C188.658 42.9942 189.556 42.1393 190.139 41.0679V34.8616H186.52C181.672 34.8616 179.094 36.5314 178.785 39.8711L178.751 40.4353C178.751 41.6435 179.174 42.6352 180.02 43.4102C180.866 44.1853 182.026 44.5729 183.501 44.5729Z" fill="#A2A2A2"/>
</g>
<defs>
<clipPath id="clip0_905_8923">
<rect width="201.287" height="51.9601" fill="white"/>
</clipPath>
</defs>
</svg>
